<svg xmlns="http://www.w3.org/2000/svg" viewBox="0 0 1502.2 1000"><defs><style>.cls-1{fill:#fff;}.cls-14,.cls-2{fill:#babaff;}.cls-3{fill:#dcdcf7;}.cls-4{fill:#3838d1;}.cls-5{fill:#4f4fe8;}.cls-6{fill:#e647e0;}.cls-7{fill:#4949de;}.cls-12,.cls-8,.cls-9{fill:none;stroke-linecap:round;stroke-linejoin:round;}.cls-8{stroke:#4949de;stroke-width:5.7px;}.cls-12,.cls-9{stroke:#fff;}.cls-9{stroke-width:7.69px;}.cls-10{fill:#261e5e;}.cls-11{fill:#c7c7ff;}.cls-12{stroke-width:2.28px;}.cls-13{fill:#ed58e8;}.cls-14{opacity:0.56;}.cls-15{fill:#c4c4ff;}</style></defs><g id="background"><rect class="cls-1" width="1502.2" height="1000"/></g><g id="image"><rect class="cls-2" x="347.9" y="230.65" width="827.65" height="577.02" rx="51.56"/><rect class="cls-3" x="839.48" y="338.51" width="271.62" height="440.35" rx="11.35"/><path class="cls-4" d="M1175.55,304.86V282.22A51.57,51.57,0,0,0,1124,230.65H399.46a51.56,51.56,0,0,0-51.56,51.57v22.64Z"/><rect class="cls-1" x="868.71" y="390.96" width="223.66" height="69.19" rx="11.52"/><rect class="cls-1" x="868.71" y="488.43" width="99.95" height="45.99" rx="9.55"/><rect class="cls-1" x="936.27" y="708.29" width="136.32" height="29.51" rx="8.93"/><rect class="cls-1" x="993.74" y="488.43" width="96.47" height="45.99" rx="9.38"/><rect class="cls-1" x="866.48" y="576.5" width="51.3" height="157.79" rx="12.67"/><path class="cls-5" d="M999.66,448.22h62.08a10.84,10.84,0,0,0,10.79-10.7l.24-31a10.64,10.64,0,0,0-10.62-10.7h-62.08a10.84,10.84,0,0,0-10.79,10.7l-.24,31A10.64,10.64,0,0,0,999.66,448.22Z"/><path class="cls-5" d="M1060.57,444.82l6.79,12.53a3.24,3.24,0,0,1-4,4.56l-45.89-17.09Z"/><path class="cls-1" d="M1011.56,419.37a7.2,7.2,0,0,1-7.18,7.13,7.06,7.06,0,0,1-7.07-7.13,7.19,7.19,0,0,1,7.18-7.12A7.06,7.06,0,0,1,1011.56,419.37Z"/><path class="cls-1" d="M1036.41,419.37a7.19,7.19,0,0,1-7.18,7.13,7.06,7.06,0,0,1-7.07-7.13,7.19,7.19,0,0,1,7.18-7.12A7.06,7.06,0,0,1,1036.41,419.37Z"/><ellipse class="cls-1" cx="1054.14" cy="419.37" rx="7.15" ry="7.1" transform="translate(11.31 866.13) rotate(-44.88)"/><circle class="cls-6" cx="395.47" cy="268.53" r="11.12" transform="translate(42.9 591.33) rotate(-76.65)"/><circle class="cls-1" cx="438.32" cy="268.53" r="11.12" transform="translate(-61.5 388.59) rotate(-45)"/><circle class="cls-2" cx="481.17" cy="268.53" r="11.12" transform="translate(-42.93 438.68) rotate(-47.15)"/><path class="cls-3" d="M460.14,494.54a1.07,1.07,0,1,1-1.07-1.07A1.07,1.07,0,0,1,460.14,494.54Z"/><rect class="cls-3" x="407.44" y="338.51" width="394.42" height="440.35" rx="13.68"/><rect class="cls-1" x="618.28" y="390.96" width="139.63" height="143.46" rx="13.11"/><path class="cls-7" d="M670.9,484.9H634.57a3.63,3.63,0,0,1-3.61-3.61h0a3.62,3.62,0,0,1,3.61-3.61H670.9a3.62,3.62,0,0,1,3.61,3.61h0A3.63,3.63,0,0,1,670.9,484.9Z"/><path class="cls-7" d="M652.94,501.43H634.57a3.62,3.62,0,0,1-3.61-3.61h0a3.63,3.63,0,0,1,3.61-3.61h18.37a3.62,3.62,0,0,1,3.61,3.61h0A3.61,3.61,0,0,1,652.94,501.43Z"/><rect class="cls-7" x="879.33" y="499.55" width="43.54" height="7.22" rx="3.61"/><rect class="cls-7" x="912.83" y="499.55" width="43.54" height="7.22" rx="3.61"/><path class="cls-7" d="M901.31,523.3H882.94a3.62,3.62,0,0,1-3.61-3.61h0a3.63,3.63,0,0,1,3.61-3.61h18.37a3.63,3.63,0,0,1,3.61,3.61h0A3.62,3.62,0,0,1,901.31,523.3Z"/><path class="cls-7" d="M731,484.9H694.71a3.63,3.63,0,0,1-3.61-3.61h0a3.62,3.62,0,0,1,3.61-3.61H731a3.62,3.62,0,0,1,3.61,3.61h0A3.63,3.63,0,0,1,731,484.9Z"/><path class="cls-7" d="M713.08,501.43H694.71a3.62,3.62,0,0,1-3.61-3.61h0a3.63,3.63,0,0,1,3.61-3.61h18.37a3.62,3.62,0,0,1,3.61,3.61h0A3.61,3.61,0,0,1,713.08,501.43Z"/><rect class="cls-1" x="448.19" y="576" width="309.72" height="162.05" rx="13.68"/><path class="cls-7" d="M716.69,450.24h0a9.14,9.14,0,0,1-9.12-9.12V410.61a9.14,9.14,0,0,1,9.12-9.12h0a9.14,9.14,0,0,1,9.12,9.12v30.51A9.14,9.14,0,0,1,716.69,450.24Z"/><path class="cls-2" d="M683.63,450.24h0a9.14,9.14,0,0,1-9.12-9.12v-14a9.14,9.14,0,0,1,9.12-9.12h0a9.15,9.15,0,0,1,9.12,9.12v14A9.15,9.15,0,0,1,683.63,450.24Z"/><path class="cls-3" d="M653.41,450.24h0a9.15,9.15,0,0,1-9.12-9.12v-3.05a9.15,9.15,0,0,1,9.12-9.12h0a9.16,9.16,0,0,1,9.13,9.12v3.05A9.15,9.15,0,0,1,653.41,450.24Z"/><path class="cls-3" d="M743.79,462.69H633.73a2.56,2.56,0,0,1-2.55-2.55h0a2.55,2.55,0,0,1,2.55-2.54H743.79a2.54,2.54,0,0,1,2.54,2.54h0A2.55,2.55,0,0,1,743.79,462.69Z"/><path class="cls-3" d="M489,722.74h0a1.91,1.91,0,0,1-1.9-1.91V601.49a1.9,1.9,0,0,1,1.9-1.9h0a1.9,1.9,0,0,1,1.9,1.9V720.83A1.91,1.91,0,0,1,489,722.74Z"/><path class="cls-3" d="M534.64,722.74h0a1.91,1.91,0,0,1-1.9-1.91V601.49a1.9,1.9,0,0,1,1.9-1.9h0a1.9,1.9,0,0,1,1.9,1.9V720.83A1.91,1.91,0,0,1,534.64,722.74Z"/><path class="cls-3" d="M580.25,722.74h0a1.91,1.91,0,0,1-1.9-1.91V601.49a1.9,1.9,0,0,1,1.9-1.9h0a1.9,1.9,0,0,1,1.9,1.9V720.83A1.91,1.91,0,0,1,580.25,722.74Z"/><path class="cls-3" d="M625.85,722.74h0a1.91,1.91,0,0,1-1.9-1.91V601.49a1.9,1.9,0,0,1,1.9-1.9h0a1.9,1.9,0,0,1,1.9,1.9V720.83A1.91,1.91,0,0,1,625.85,722.74Z"/><path class="cls-3" d="M671.46,722.74h0a1.91,1.91,0,0,1-1.9-1.91V601.49a1.9,1.9,0,0,1,1.9-1.9h0a1.9,1.9,0,0,1,1.9,1.9V720.83A1.91,1.91,0,0,1,671.46,722.74Z"/><path class="cls-3" d="M487.14,720.83h0a1.91,1.91,0,0,1,1.9-1.9h228a1.91,1.91,0,0,1,1.9,1.91h0a1.91,1.91,0,0,1-1.9,1.9H489A1.91,1.91,0,0,1,487.14,720.83Z"/><path class="cls-3" d="M717.06,722.74h0a1.91,1.91,0,0,1-1.9-1.91V601.49a1.9,1.9,0,0,1,1.9-1.9h0a1.9,1.9,0,0,1,1.9,1.9V720.83A1.91,1.91,0,0,1,717.06,722.74Z"/><path class="cls-8" d="M479.46,690.44s12.28-36.22,48-28.51c38.72,8.36,50.13,18.62,83.84-19.16,25.24-28.27,35.56-32.75,66.33-26.35s52.2-25,52.2-25"/><circle class="cls-7" cx="578.74" cy="668.97" r="6.27"/><circle class="cls-7" cx="650.03" cy="615.67" r="6.27"/><path class="cls-3" d="M439.12,509.21H424.88a2.13,2.13,0,0,1-2.14-2.7h0a3.52,3.52,0,0,1,3.26-2.7h14.24a2.13,2.13,0,0,1,2.13,2.7h0A3.51,3.51,0,0,1,439.12,509.21Z"/><path class="cls-6" d="M920.23,450.24H903.45a26.64,26.64,0,0,1-26.56-26.56h0a26.64,26.64,0,0,1,26.56-26.56h16.78a26.64,26.64,0,0,1,26.56,26.56h0A26.64,26.64,0,0,1,920.23,450.24Z"/><polyline class="cls-9" points="897.75 417.15 911.07 435.85 925.93 411.51"/><path class="cls-10" d="M422.41,610.38l-34,19.42L338,627.27l29.31-16.49,54.56-2.37A1.06,1.06,0,0,1,422.41,610.38Z"/><path class="cls-10" d="M431.32,570.25H380.06a2.65,2.65,0,0,0-2.43,2l-8.39,34.65a1.49,1.49,0,0,0,1.48,1.95H422a2.65,2.65,0,0,0,2.42-1.95l8.39-34.65A1.49,1.49,0,0,0,431.32,570.25Z"/><path class="cls-11" d="M425.76,573.79H383.9a2.18,2.18,0,0,0-2,1.59l-6.85,28.29a1.22,1.22,0,0,0,1.21,1.59h41.86a2.16,2.16,0,0,0,2-1.59L427,575.38A1.22,1.22,0,0,0,425.76,573.79Z"/><path class="cls-4" d="M392.84,588.45l6.85-11.94a11.67,11.67,0,0,0-3.76-.6c-7.07,0-13.9,5.74-15.24,12.81s3.3,12.81,10.37,12.81a14.83,14.83,0,0,0,7.57-2.18Z"/><path class="cls-6" d="M395.09,587.4,401,577.23a9.27,9.27,0,0,1,4.53,7.68Z"/><path class="cls-1" d="M395.45,589.14l9.94-2.68c.93,3.16-2.12,9.16-5.52,11.25Z"/><path class="cls-12" d="M1074.22,685.9H952.36a13,13,0,0,1-13-13.11l.56-78.88a13,13,0,0,1,13-12.93h121.86a13,13,0,0,1,13,13.11l-.56,78.88A13,13,0,0,1,1074.22,685.9Z"/><path class="cls-13" d="M1100.89,660.37H979a13,13,0,0,1-13-13.11l.56-78.88a13,13,0,0,1,13-12.93h121.86a13,13,0,0,1,13,13.11l-.56,78.88A13,13,0,0,1,1100.89,660.37Z"/><path class="cls-4" d="M978.63,660.37a7,7,0,0,1-5.86-10.71l25-39a8.22,8.22,0,0,1,13.55-.49L1041.91,652l21.48-23a11,11,0,0,1,15.44-.66l26.69,24.43a4.37,4.37,0,0,1-3,7.6Z"/><path class="cls-1" d="M1092.24,575.19a8.42,8.42,0,0,1-8.41,8.36,8.28,8.28,0,0,1-8.29-8.36,8.42,8.42,0,0,1,8.41-8.35A8.28,8.28,0,0,1,1092.24,575.19Z"/><path class="cls-1" d="M998.19,620.36s12.46,1,13.22,1.7c.36.31,4.5.33,8.78.26L1011.33,610a8.27,8.27,0,0,0-13.6.61l-8.09,12.63Z"/><path class="cls-1" d="M1078.88,628.26a11,11,0,0,0-15.43.66l-6.83,7.33,9.73,5.22,23.25-3.4Z"/><polygon class="cls-14" points="706.03 163.01 917.94 124.03 936.38 156.97 898.41 307.23 706.03 163.01"/><rect class="cls-13" x="687.92" y="163.01" width="211.68" height="155.85" rx="18.11"/><circle class="cls-1" cx="737.19" cy="202.4" r="31.04"/><path class="cls-4" d="M737.19,233.44a31,31,0,0,0,23.56-10.84c-4.33-7.62-13.25-12.86-23.56-12.86S718,215,713.64,222.6A30.93,30.93,0,0,0,737.19,233.44Z"/><circle class="cls-4" cx="737.19" cy="191.9" r="9.5"/><circle class="cls-1" cx="737.19" cy="279.64" r="31.04"/><path class="cls-4" d="M737.19,310.68a31,31,0,0,0,23.56-10.84C756.42,292.22,747.5,287,737.19,287s-19.22,5.24-23.55,12.86A31,31,0,0,0,737.19,310.68Z"/><circle class="cls-4" cx="737.19" cy="269.14" r="9.5"/><path class="cls-10" d="M881,189.41H785.68a3.32,3.32,0,0,1-3.3-3.3h0a3.31,3.31,0,0,1,3.3-3.3H881a3.3,3.3,0,0,1,3.3,3.3h0A3.31,3.31,0,0,1,881,189.41Z"/><path class="cls-10" d="M832.41,210.78H786.18a3.32,3.32,0,0,1-3.31-3.3h0a3.31,3.31,0,0,1,3.31-3.3h46.23a3.3,3.3,0,0,1,3.3,3.3h0A3.31,3.31,0,0,1,832.41,210.78Z"/><path class="cls-10" d="M881,274.36H785.68a3.32,3.32,0,0,1-3.3-3.3h0a3.31,3.31,0,0,1,3.3-3.3H881a3.3,3.3,0,0,1,3.3,3.3h0A3.31,3.31,0,0,1,881,274.36Z"/><path class="cls-10" d="M832.41,295.73H786.18a3.32,3.32,0,0,1-3.31-3.3h0a3.31,3.31,0,0,1,3.31-3.3h46.23a3.3,3.3,0,0,1,3.3,3.3h0A3.31,3.31,0,0,1,832.41,295.73Z"/><rect class="cls-13" x="469.64" y="747.94" width="101.2" height="70.55" rx="6.3"/><path class="cls-4" d="M570.84,757v-2.77a6.32,6.32,0,0,0-6.31-6.31H475.94a6.31,6.31,0,0,0-6.3,6.31V757Z"/><path class="cls-1" d="M506.44,778.73l-12.9,12a2.94,2.94,0,0,1-4.15-.14h0a3,3,0,0,1,.13-4.16l12.9-12.05a3,3,0,0,1,4.16.14h0A3,3,0,0,1,506.44,778.73Z"/><path class="cls-1" d="M501.42,803.55l-12.06-12.9a3,3,0,0,1,.14-4.16h0a3,3,0,0,1,4.16.14l12.06,12.9a3,3,0,0,1-.14,4.16h0A3,3,0,0,1,501.42,803.55Z"/><path class="cls-1" d="M532.94,778.73l12.89,12a3,3,0,0,0,4.16-.14h0a3,3,0,0,0-.14-4.16L537,774.43a2.94,2.94,0,0,0-4.15.14h0A2.94,2.94,0,0,0,532.94,778.73Z"/><path class="cls-1" d="M538,803.55,550,790.65a3,3,0,0,0-.14-4.16h0a3,3,0,0,0-4.16.14l-12.05,12.9a2.94,2.94,0,0,0,.14,4.16h0A3,3,0,0,0,538,803.55Z"/><path class="cls-1" d="M514.09,806.77l7.71-15.88a2.94,2.94,0,0,0-1.36-3.93h0a3,3,0,0,0-3.93,1.36L508.8,804.2a2.94,2.94,0,0,0,1.36,3.93h0A2.94,2.94,0,0,0,514.09,806.77Z"/><path class="cls-1" d="M521.73,791l7.71-15.88a3,3,0,0,0-1.36-3.94h0a3,3,0,0,0-3.93,1.37l-7.71,15.87a3,3,0,0,0,1.36,3.94h0A3,3,0,0,0,521.73,791Z"/><rect class="cls-4" x="469.64" y="757.02" width="101.2" height="7.06"/><circle class="cls-6" cx="477.5" cy="756.57" r="3.4"/><path class="cls-1" d="M494,756.57a3.4,3.4,0,1,1-3.4-3.4A3.4,3.4,0,0,1,494,756.57Z"/><path class="cls-2" d="M507.11,756.57a3.4,3.4,0,1,1-3.4-3.4A3.4,3.4,0,0,1,507.11,756.57Z"/><circle class="cls-15" cx="914.53" cy="697.86" r="25.53" transform="matrix(0.03, -1, 1, 0.03, 187.59, 1589.46)"/><rect class="cls-15" x="924.7" y="720.93" width="3.98" height="27.87" rx="1.75" transform="translate(-214.99 426.07) rotate(-23.28)"/><path class="cls-10" d="M941.78,770h0a5.31,5.31,0,0,1-7-2.77l-10.66-24.82a5.3,5.3,0,0,1,2.77-7h0a5.32,5.32,0,0,1,7,2.77L944.55,763A5.31,5.31,0,0,1,941.78,770Z"/><path class="cls-10" d="M899.78,724.08a30.08,30.08,0,1,1,41-11.46A30.12,30.12,0,0,1,899.78,724.08Zm26.44-47a23.84,23.84,0,1,0,9.09,32.46A23.86,23.86,0,0,0,926.22,677.09Z"/><path class="cls-1" d="M930.12,690.24a5.16,5.16,0,1,1-3.92-6.16A5.16,5.16,0,0,1,930.12,690.24Z"/><rect class="cls-12" x="445.48" y="390.4" width="139.63" height="143.46" rx="13.11"/><circle class="cls-12" cx="474.67" cy="431.31" r="17.09" transform="translate(-137.02 238.5) rotate(-24.76)"/><rect class="cls-12" x="497.93" y="416.88" width="70.69" height="7.22" rx="3.61"/><path class="cls-12" d="M536.12,444.24H501.54a3.61,3.61,0,0,1-3.61-3.61h0a3.62,3.62,0,0,1,3.61-3.61h34.58a3.62,3.62,0,0,1,3.61,3.61h0A3.61,3.61,0,0,1,536.12,444.24Z"/><circle class="cls-12" cx="474.67" cy="491.55" r="17.09"/><path class="cls-12" d="M565,484.34H501.54a3.61,3.61,0,0,1-3.61-3.61h0a3.62,3.62,0,0,1,3.61-3.61H565a3.63,3.63,0,0,1,3.61,3.61h0A3.62,3.62,0,0,1,565,484.34Z"/><path class="cls-12" d="M536.12,504.48H501.54a3.61,3.61,0,0,1-3.61-3.61h0a3.62,3.62,0,0,1,3.61-3.61h34.58a3.62,3.62,0,0,1,3.61,3.61h0A3.61,3.61,0,0,1,536.12,504.48Z"/><rect class="cls-1" x="282.13" y="422.29" width="19.18" height="4.4" rx="2" transform="translate(800.74 345.85) rotate(115.72)"/><path class="cls-1" d="M190.53,397.93l10,11.07a2.21,2.21,0,0,0,3.11.15h0a2.2,2.2,0,0,0,.15-3.11l-10-11.06a2.2,2.2,0,0,0-3.1-.16h0A2.2,2.2,0,0,0,190.53,397.93Z"/><rect class="cls-4" x="319.75" y="320.59" width="139.63" height="143.46" rx="13.11"/><circle class="cls-3" cx="348.94" cy="361.51" r="17.09" transform="translate(-110.92 159.08) rotate(-22.25)"/><path class="cls-3" d="M439.27,354.29H375.8a3.62,3.62,0,0,1-3.61-3.61h0a3.63,3.63,0,0,1,3.61-3.61h63.47a3.62,3.62,0,0,1,3.61,3.61h0A3.61,3.61,0,0,1,439.27,354.29Z"/><path class="cls-3" d="M410.39,374.44H375.8a3.63,3.63,0,0,1-3.61-3.61h0a3.62,3.62,0,0,1,3.61-3.61h34.59a3.62,3.62,0,0,1,3.61,3.61h0A3.63,3.63,0,0,1,410.39,374.44Z"/><circle class="cls-3" cx="348.94" cy="421.75" r="17.09"/><path class="cls-3" d="M439.27,414.54H375.8a3.63,3.63,0,0,1-3.61-3.61h0a3.62,3.62,0,0,1,3.61-3.61h63.47a3.61,3.61,0,0,1,3.61,3.61h0A3.62,3.62,0,0,1,439.27,414.54Z"/><path class="cls-3" d="M410.39,434.68H375.8a3.63,3.63,0,0,1-3.61-3.61h0a3.62,3.62,0,0,1,3.61-3.61h34.59a3.62,3.62,0,0,1,3.61,3.61h0A3.63,3.63,0,0,1,410.39,434.68Z"/></g></svg>